<svg xmlns="http://www.w3.org/2000/svg" width="151.64" height="69.19"><defs><style>.a{fill:#aca8fc}</style></defs><path class="a" d="M132.54 18.16a1 1 0 01-1.03 1.03h-.85v1.22h-.33v-3.29h1.17a1.027 1.027 0 011.04 1.04zm-.33 0a.691.691 0 00-.71-.72h-.85v1.45h.85a.7.7 0 00.71-.73zM135.12 19.25a.757.757 0 01-.01.15h-2.06a.89.89 0 00.93.78.833.833 0 00.76-.4l.27.16a1.176 1.176 0 01-1.03.54 1.23 1.23 0 11-.02-2.46 1.17 1.17 0 011.16 1.23zm-2.07-.15h1.75a.836.836 0 00-.85-.78.862.862 0 00-.9.78zm.22-1.6a.21.21 0 11.21.21.2.2 0 01-.21-.21zm.89 0a.21.21 0 11.21.21.2.2 0 01-.21-.21zM136.67 18.03v.3a.693.693 0 00-.74.78v1.31h-.31v-2.35h.31v.39a.752.752 0 01.74-.43zM115.22 24.86l.28-.16a.9.9 0 00.94.65c.5 0 .78-.24.78-.59 0-.38-.32-.5-.81-.66-.54-.18-1.05-.32-1.05-.93a.918.918 0 011.01-.9 1.163 1.163 0 011.09.71l-.28.15a.833.833 0 00-.81-.55c-.39 0-.68.21-.68.57s.28.47.73.62c.6.2 1.13.37 1.13.98 0 .56-.45.92-1.11.92a1.226 1.226 0 01-1.22-.81zM120.09 24.16v1.44h-.31v-1.44a.59.59 0 00-.64-.66c-.41 0-.76.24-.76.87v1.23h-.31v-3.29h.31v1.31a.859.859 0 01.79-.42.872.872 0 01.92.96zM122.95 24.44a.757.757 0 01-.01.15h-2.06a.893.893 0 00.94.78.833.833 0 00.76-.4l.27.16a1.176 1.176 0 01-1.03.54 1.23 1.23 0 11-.02-2.46 1.169 1.169 0 011.15 1.23zm-2.08-.16h1.75a.836.836 0 00-.85-.78.883.883 0 00-.9.78zm.23-1.59a.21.21 0 11.21.21.205.205 0 01-.21-.21zm.89 0a.21.21 0 11.21.21.205.205 0 01-.21-.21zM125.46 24.16v1.44h-.31v-1.44a.59.59 0 00-.64-.66c-.41 0-.76.24-.76.87v1.23h-.31v-2.34h.31v.37a.932.932 0 011.71.53zM128.4 22.32v3.29h-.31v-.46a1.105 1.105 0 01-.95.52 1.23 1.23 0 010-2.46 1.084 1.084 0 01.95.52v-1.4h.31zm-.31 2.11a.93.93 0 10-.93.93.916.916 0 00.93-.93zM131.31 24.44a.757.757 0 01-.01.15h-2.06a.893.893 0 00.94.78.833.833 0 00.76-.4l.27.16a1.176 1.176 0 01-1.03.54 1.23 1.23 0 11-.02-2.46 1.169 1.169 0 011.15 1.23zm-2.07-.16h1.75a.836.836 0 00-.85-.78.869.869 0 00-.9.78zM132.3 23.56v1.42c0 .4.22.37.68.35v.27c-.63.09-.99-.06-.99-.63v-1.41h-.49v-.3h.49v-.56l.31-.09v.66h.68v.3h-.68zM133.43 22.53a.233.233 0 01.23-.23.226.226 0 01.23.23.23.23 0 11-.46 0zm.07.73h.31v2.35h-.31zM136.49 24.16v1.44h-.31v-1.44a.59.59 0 00-.64-.66c-.41 0-.76.24-.76.87v1.23h-.31v-2.34h.31v.37a.932.932 0 011.71.53zM123.69 30.79h-.33V28l-1.15 1.93h-.05L121.01 28v2.79h-.33V27.5h.41l1.09 1.83 1.09-1.83h.41v3.29zM126.65 29.63a.757.757 0 01-.01.15h-2.06a.893.893 0 00.94.78.833.833 0 00.76-.4l.27.16a1.176 1.176 0 01-1.03.54 1.23 1.23 0 11-.02-2.46 1.157 1.157 0 011.15 1.23zm-2.07-.16h1.75a.836.836 0 00-.85-.78.869.869 0 00-.9.78zM129.17 29.35v1.44h-.31v-1.44a.59.59 0 00-.64-.66c-.41 0-.76.24-.76.87v1.23h-.31v-2.35h.31v.37a.859.859 0 01.79-.42.872.872 0 01.92.96zM132.1 27.5v3.29h-.31v-.46a1.105 1.105 0 01-.95.52 1.23 1.23 0 010-2.46 1.084 1.084 0 01.95.52v-1.4h.31zm-.31 2.12a.93.93 0 10-.93.93.916.916 0 00.93-.93zM132.62 29.62a1.24 1.24 0 111.24 1.23 1.219 1.219 0 01-1.24-1.23zm2.16 0a.93.93 0 10-.93.93.916.916 0 00.93-.93zM136.67 28.4v.3a.693.693 0 00-.74.78v1.31h-.31v-2.35h.31v.39a.752.752 0 01.74-.43zM41.59 3.63a9.573 9.573 0 019.56 9.56v42.79a9.573 9.573 0 01-9.56 9.56H13.2a9.573 9.573 0 01-9.56-9.56V13.2a9.573 9.573 0 019.56-9.56h28.39zm0-3.63H13.2A13.213 13.213 0 000 13.2v42.79a13.213 13.213 0 0013.2 13.2h28.39a13.213 13.213 0 0013.2-13.2V13.2A13.213 13.213 0 0041.59 0z"/><path class="a" d="M17.82 13.3a4.52 4.52 0 11-4.52-4.52 4.522 4.522 0 014.52 4.52zM46.01 13.3a4.52 4.52 0 11-4.52-4.52 4.522 4.522 0 014.52 4.52zM17.82 55.88a4.52 4.52 0 11-4.52-4.52 4.515 4.515 0 014.52 4.52zM46.01 55.88a4.52 4.52 0 11-4.52-4.52 4.515 4.515 0 014.52 4.52zM10.43 32.81a23.949 23.949 0 0033.9 0l-2.87-2.87a19.893 19.893 0 01-28.16 0l-2.87 2.87zM78.57 20.7l-.37 2.13h4.57l-.56 3.23h-4.59l-.78 4.48H73.5l2.3-13.06h8.02l-.56 3.23h-4.69zM83.93 23.8a7.854 7.854 0 017.84-6.61 5.74 5.74 0 015.8 6.98 7.789 7.789 0 01-7.8 6.64 5.759 5.759 0 01-5.84-7.01zm10.32.21a2.8 2.8 0 00-2.87-3.55 4.22 4.22 0 00-4.12 3.55 2.762 2.762 0 002.82 3.55 4.263 4.263 0 004.17-3.55zM106.39 27.31l-.56 3.23h-7.84l2.3-13.06h3.34l-1.74 9.83zM86.82 51.7H83.5l1.23-7.05-4.09 5.26h-.33l-2.22-5.36-1.25 7.15H73.5l2.3-13.06h3.34l2.13 5.64 4.31-5.64h3.55zM93.98 41.76l-.34 1.83h4.52l-.56 3.06h-4.48l-.34 1.92h5.04l-.54 3.14h-8.4l2.3-13.06h8.3l-.56 3.12h-4.94zM116.43 51.7h-3.32l1.23-7.05-4.09 5.26h-.34l-2.22-5.36-1.25 7.15h-3.34l2.3-13.06h3.34l2.13 5.64 4.31-5.64h3.55zM119.08 47.41l1.55-8.77h3.34l-1.49 8.45c-.17.93.17 1.64 1.55 1.64a1.908 1.908 0 002.13-1.64l1.47-8.45h3.34l-1.55 8.77a5.39 5.39 0 01-5.71 4.57c-3.19 0-5.1-1.92-4.63-4.57zM130.61 49.99a2.347 2.347 0 012.28-1.9 1.623 1.623 0 011.61 1.98 2.286 2.286 0 01-2.3 1.9 1.62 1.62 0 01-1.59-1.98zm1.38-7.62l.65-3.73h3.81l-.65 3.73-1.42 4.57h-2.58z"/><path class="a" d="M138.43 0h-66.9a13.213 13.213 0 00-13.2 13.2v42.78a13.189 13.189 0 005.56 10.76h.01c.36.25.73.49 1.12.71a13.087 13.087 0 006.52 1.73h66.9a13.213 13.213 0 0013.2-13.2V13.2A13.241 13.241 0 00138.43 0zm9.56 55.98a9.573 9.573 0 01-9.56 9.56h-66.9a9.573 9.573 0 01-9.56-9.56V13.2a9.581 9.581 0 019.56-9.57h66.9a9.575 9.575 0 019.56 9.57z"/></svg>